<?xml version="1.0" standalone="no"?>
<!DOCTYPE svg PUBLIC "-//W3C//DTD SVG 20010904//EN"
 "http://www.w3.org/TR/2001/REC-SVG-20010904/DTD/svg10.dtd">
<svg version="1.0" xmlns="http://www.w3.org/2000/svg"
 width="500.000000pt" height="500.000000pt" viewBox="0 0 500.000000 500.000000"
 preserveAspectRatio="xMidYMid meet">

<g transform="translate(0.000000,500.000000) scale(0.100000,-0.100000)"
fill="#000000" stroke="none">
<path d="M694 4021 c-57 -26 -111 -92 -124 -155 -8 -36 -10 -391 -8 -1201 l3
-1150 22 -42 c27 -51 82 -96 132 -112 27 -8 231 -11 693 -11 l654 0 529 -282
c488 -260 533 -282 587 -286 48 -4 67 0 113 22 30 15 63 39 74 54 10 15 211
387 446 827 235 440 477 892 537 1005 60 112 113 224 117 247 15 76 -10 153
-66 204 -36 34 -1328 724 -1383 739 -58 15 -123 3 -178 -34 -43 -29 -57 -51
-207 -331 l-160 -300 -5 330 c-5 316 -6 332 -27 371 -25 47 -73 91 -120 111
-26 10 -180 13 -810 13 -734 0 -780 -1 -819 -19z m1572 -96 c30 -19 60 -49 79
-79 l30 -49 3 -379 3 -379 -48 -90 -48 -90 -5 418 c-5 457 -3 437 -69 506 -64
67 -65 67 -696 67 -635 0 -632 0 -703 -71 -23 -22 -47 -57 -54 -77 -10 -30
-13 -234 -13 -1012 0 -932 1 -977 19 -1010 26 -49 64 -88 108 -111 35 -18 63
-19 444 -19 395 0 408 -1 429 -20 12 -11 51 -36 86 -55 l64 -35 -552 3 -551 2
-44 31 c-26 19 -54 53 -71 84 l-27 53 2 1091 c3 1081 3 1091 24 1130 11 22 36
53 56 69 72 58 52 57 799 54 l686 -2 49 -30z m849 -184 c138 -66 1151 -613
1173 -634 58 -54 84 -153 59 -224 -8 -23 -236 -457 -506 -965 -370 -692 -502
-932 -531 -960 -52 -50 -134 -75 -197 -59 -25 7 -176 82 -337 168 -160 85
-421 225 -581 310 -159 86 -303 167 -319 182 -42 39 -66 97 -66 165 0 59 1 61
502 1000 276 517 516 956 533 975 66 75 168 91 270 42z m-1327 -591 c61 -34
95 -88 100 -161 9 -120 -41 -209 -116 -209 -76 0 -106 46 -83 128 23 78 -37
111 -99 55 -24 -23 -46 -73 -115 -266 -47 -131 -85 -254 -85 -272 0 -51 48
-101 117 -121 66 -19 117 -14 190 22 61 29 102 74 143 153 16 32 36 61 45 65
55 21 115 -12 115 -62 0 -44 -61 -155 -115 -208 -96 -96 -213 -139 -364 -132
-144 6 -240 56 -299 157 -24 40 -27 56 -26 126 0 74 7 97 86 321 48 133 95
259 106 280 18 35 58 78 104 113 64 48 220 54 296 11z"/>
<path d="M2962 3618 c-81 -27 -89 -41 -556 -916 -244 -458 -449 -846 -455
-864 -27 -76 7 -194 67 -237 69 -48 1031 -554 1067 -560 88 -15 183 24 229 97
13 20 221 406 462 857 406 761 438 824 442 878 5 68 -15 131 -56 173 -15 16
-258 152 -540 302 -474 254 -516 274 -569 278 -32 2 -73 -2 -91 -8z m458 -925
c70 -31 106 -65 136 -128 57 -121 6 -245 -91 -221 -41 10 -62 42 -67 102 -5
63 -26 90 -75 100 -26 5 -37 1 -57 -19 -33 -33 -34 -92 -5 -214 29 -119 30
-242 2 -304 -30 -66 -86 -124 -151 -156 -51 -25 -67 -28 -162 -28 -93 0 -112
3 -162 27 -114 53 -199 162 -214 275 -9 70 17 156 61 200 37 37 69 42 115 18
53 -28 63 -72 30 -140 -25 -51 -25 -92 0 -133 56 -92 189 -107 258 -28 44 51
47 87 16 249 -38 206 -29 281 47 356 81 82 199 98 319 44z"/>
</g>
</svg>
